HIERARCHY
ROOT Hips
{
	OFFSET 53.111801 -9.253544 85.535301
	CHANNELS 6 Xposition Yposition Zposition Xrotation Yrotation Zrotation
	JOINT spine
	{
		OFFSET 0.000000 -0.367607 6.392601
		CHANNELS 3 Xrotation Yrotation Zrotation
		JOINT spine1
		{
			OFFSET 0.000000 -0.000001 9.176109
			CHANNELS 3 Xrotation Yrotation Zrotation
			JOINT spine2
			{
				OFFSET 0.000000 -0.000002 8.792381
				CHANNELS 3 Xrotation Yrotation Zrotation
				JOINT Neck
				{
					OFFSET 0.000000 -1.076243 22.573700
					CHANNELS 3 Xrotation Yrotation Zrotation
					JOINT Head
					{
						OFFSET 0.000000 -0.000001 6.820114
						CHANNELS 3 Xrotation Yrotation Zrotation
						End Site
						{
							OFFSET 0.000000 5.444268 16.508499
						}
					}
				}
				JOINT RightShoulder
				{
					OFFSET -3.702209 0.515507 9.495087
					CHANNELS 3 Xrotation Yrotation Zrotation
					JOINT RightArm
					{
						OFFSET 0.000000 -0.000003 12.453705
						CHANNELS 3 Xrotation Yrotation Zrotation
						JOINT RightArmRoll
						{
							OFFSET 0.000000 -0.000001 6.286865
							CHANNELS 3 Xrotation Yrotation Zrotation
							JOINT RightForeArm
							{
								OFFSET 0.000000 -0.000003 18.311401
								CHANNELS 3 Xrotation Yrotation Zrotation
								JOINT RightForeArmRoll
								{
									OFFSET 0.000000 -0.000001 7.054825
									CHANNELS 3 Xrotation Yrotation Zrotation
									JOINT RightHand
									{
										OFFSET 0.000000 -0.000002 14.157501
										CHANNELS 3 Xrotation Yrotation Zrotation
										End Site
										{
											OFFSET 0.000000 0.000000 0.100006
										}
									}
								}
							}
						}
					}
				}
				JOINT LeftShoulder
				{
					OFFSET 3.702209 0.515507 9.495087
					CHANNELS 3 Xrotation Yrotation Zrotation
					JOINT LeftArm
					{
						OFFSET 0.000000 -0.000003 12.453705
						CHANNELS 3 Xrotation Yrotation Zrotation
						JOINT LeftArmRoll
						{
							OFFSET 0.000000 -0.000001 6.286865
							CHANNELS 3 Xrotation Yrotation Zrotation
							JOINT LeftForeArm
							{
								OFFSET 0.000000 -0.000003 18.311401
								CHANNELS 3 Xrotation Yrotation Zrotation
								JOINT LeftForeArmRoll
								{
									OFFSET 0.000000 -0.000001 7.054825
									CHANNELS 3 Xrotation Yrotation Zrotation
									JOINT LeftHand
									{
										OFFSET 0.000000 -0.000002 14.157501
										CHANNELS 3 Xrotation Yrotation Zrotation
										End Site
										{
											OFFSET 0.000000 0.000000 0.100006
										}
									}
								}
							}
						}
					}
				}
			}
		}
	}
	JOINT RightUpLeg
	{
		OFFSET -5.666149 0.871611 -1.039032
		CHANNELS 3 Xrotation Yrotation Zrotation
		JOINT RightUpLegRoll
		{
			OFFSET 0.000000 -0.000003 16.600502
			CHANNELS 3 Xrotation Yrotation Zrotation
			JOINT RightLeg
			{
				OFFSET 0.000000 0.000003 -20.557198
				CHANNELS 3 Xrotation Yrotation Zrotation
				JOINT RightLegRoll
				{
					OFFSET 0.000000 -0.000003 20.624397
					CHANNELS 3 Xrotation Yrotation Zrotation
					JOINT RightFoot
					{
						OFFSET 0.000000 -0.000003 17.166397
						CHANNELS 3 Xrotation Yrotation Zrotation
						JOINT RightToeBase
						{
							OFFSET 0.000000 -0.000003 14.350204
							CHANNELS 3 Xrotation Yrotation Zrotation
							End Site
							{
								OFFSET 0.006081 0.801060 6.949707
							}
						}
					}
				}
			}
		}
	}
	JOINT LeftUpLeg
	{
		OFFSET 5.666149 0.871611 -1.039032
		CHANNELS 3 Xrotation Yrotation Zrotation
		JOINT LeftUpLegRoll
		{
			OFFSET 0.000000 -0.000003 16.600601
			CHANNELS 3 Xrotation Yrotation Zrotation
			JOINT LeftLeg
			{
				OFFSET 0.000000 -0.000004 20.557098
				CHANNELS 3 Xrotation Yrotation Zrotation
				JOINT LeftLegRoll
				{
					OFFSET 0.000000 -0.000003 20.815102
					CHANNELS 3 Xrotation Yrotation Zrotation
					JOINT LeftFoot
					{
						OFFSET 0.000000 -0.000003 16.975693
						CHANNELS 3 Xrotation Yrotation Zrotation
						JOINT LeftToeBase
						{
							OFFSET 0.000000 -0.000003 14.350204
							CHANNELS 3 Xrotation Yrotation Zrotation
							End Site
							{
								OFFSET -0.027260 0.801059 6.949707
							}
						}
					}
				}
			}
		}
	}
}
MOTION
Frames: 7
Frame Time: 0.041667
52.791996 -10.323013 85.678307 -3.108904 2.375413 -4.159358 -1.306240 0.045909 -0.027522 1.390382 0.094521 -0.054274 3.035454 0.093867 -0.055638 8.847425 -2.233710 2.130978 2.437105 2.129694 2.215069 -8.515348 -59.911756 -10.096401 -40.891728 -115.732774 -32.699035 -0.000003 -0.000001 -0.000007 5.503427 -12.577127 0.094631 0.000003 0.000000 -3.005820 -5.000239 -7.998712 0.000184 -3.657308 54.972924 3.883944 -30.129727 116.364212 26.856135 0.000002 -0.000007 0.000005 6.151024 9.969143 0.030134 -0.000001 0.000001 3.000000 -5.000221 7.998811 -0.000157 3.238438 -174.917088 1.008508 -179.999991 0.000005 -1.220003 175.509019 -2.072618 -0.443758 -0.000002 -0.000003 0.040579 69.141834 6.952591 1.957708 25.456955 -7.355616 0.000000 2.712202 171.523371 -2.253366 -0.000005 -0.000004 -1.116620 -8.055725 1.354852 0.656470 -0.000004 0.000002 -0.122730 71.537803 -6.516403 -2.990270 25.458567 7.355616 -0.002453 
52.796097 -10.333310 85.676903 -3.112874 2.378259 -4.160919 -1.305330 0.045685 -0.027356 1.392252 0.094184 -0.053888 3.037324 0.093531 -0.055228 8.838910 -2.238999 2.132259 2.446703 2.137791 2.216186 -8.521951 -59.911933 -10.104150 -40.903059 -115.728089 -32.709253 0.000001 -0.000001 -0.000006 5.505211 -12.576788 0.093661 0.000001 -0.000001 -3.005820 -5.000238 -7.998713 0.000184 -3.663456 54.968430 3.890855 -30.129846 116.370823 26.839068 0.000002 -0.000007 0.000005 6.147563 9.951504 0.032170 0.000000 0.000001 3.000000 -5.000220 7.998811 -0.000158 3.240670 -174.916104 1.013869 -179.999991 0.000005 -1.220003 175.506642 -2.080590 -0.444470 -0.000002 -0.000002 0.040578 69.140475 6.952627 1.957701 25.456959 -7.355617 -0.000000 2.714200 171.519383 -2.256788 -0.000005 -0.000005 -1.116620 -8.059808 1.355412 0.656468 -0.000003 0.000002 -0.122743 71.538944 -6.515665 -2.992985 25.458574 7.355617 -0.002453 
52.793198 -10.329111 85.680611 -3.116773 2.381167 -4.162538 -1.304442 0.045429 -0.027171 1.394102 0.093799 -0.053448 3.039183 0.093145 -0.054761 8.830466 -2.244219 2.133471 2.456052 2.145869 2.217220 -8.528367 -59.911715 -10.111672 -40.915371 -115.722543 -32.721664 0.000000 -0.000002 -0.000007 5.507326 -12.577043 0.092760 0.000005 -0.000000 -3.005820 -5.000238 -7.998712 0.000184 -3.670048 54.963830 3.898281 -30.128948 116.378309 26.822291 0.000003 -0.000007 0.000005 6.144140 9.934807 0.034128 -0.000002 0.000001 3.000000 -5.000218 7.998811 -0.000158 3.242780 -174.915120 1.019366 -179.999991 0.000005 -1.220003 175.504183 -2.088564 -0.444188 -0.000002 -0.000003 0.040578 69.139191 6.952602 1.957676 25.456955 -7.355615 -0.000002 2.716106 171.515394 -2.260217 -0.000005 -0.000004 -1.116620 -8.063940 1.355934 0.656471 -0.000004 0.000002 -0.122753 71.539961 -6.514934 -2.995906 25.458572 7.355616 -0.002454 
52.798195 -10.320009 85.674309 -3.120646 2.384113 -4.164207 -1.303567 0.045149 -0.026974 1.395952 0.093378 -0.052970 3.041034 0.092725 -0.054256 8.822060 -2.249398 2.134628 2.465214 2.153936 2.218199 -8.534708 -59.911407 -10.119080 -40.926166 -115.717680 -32.733128 -0.000002 -0.000002 -0.000008 5.509670 -12.577794 0.091896 0.000004 -0.000000 -3.005819 -5.000241 -7.998712 0.000185 -3.676950 54.959022 3.906063 -30.128453 116.385891 26.806875 0.000002 -0.000007 0.000005 6.140744 9.918907 0.036015 -0.000000 0.000001 2.999999 -5.000222 7.998811 -0.000159 3.244817 -174.914123 1.024959 -179.999991 0.000004 -1.220003 175.501670 -2.096525 -0.443896 -0.000002 -0.000003 0.040578 69.137825 6.952602 1.957662 25.456957 -7.355615 -0.000001 2.717965 171.510421 -2.263686 -0.000005 -0.000005 -1.116620 -8.068123 1.356415 0.656476 -0.000003 0.000002 -0.122761 71.541082 -6.514165 -2.998716 25.458572 7.355615 -0.002453 
52.793697 -10.322009 85.673698 -3.124483 2.387091 -4.165904 -1.302709 0.044856 -0.026768 1.397802 0.092937 -0.052468 3.042873 0.092285 -0.053728 8.813686 -2.254549 2.135758 2.474271 2.162004 2.219140 -8.540983 -59.911004 -10.126396 -40.938153 -115.712011 -32.746338 -0.000002 -0.000000 -0.000007 5.512141 -12.578737 0.091058 0.000004 -0.000000 -3.005820 -5.000239 -7.998713 0.000184 -3.684036 54.954111 3.914051 -30.127746 116.393431 26.791844 0.000001 -0.000007 0.000005 6.137380 9.903431 0.037870 -0.000002 0.000001 3.000000 -5.000221 7.998811 -0.000158 3.246799 -174.913126 1.030607 -179.999991 0.000005 -1.220003 175.499129 -2.105491 -0.444695 -0.000002 -0.000003 0.040578 69.136445 6.952603 1.957649 25.456957 -7.355617 -0.000002 2.719772 171.506433 -2.267100 -0.000005 -0.000004 -1.116620 -8.072327 1.356886 0.656484 -0.000004 0.000002 -0.122769 71.542195 -6.513368 -3.001721 25.458569 7.355618 -0.002454 
52.785595 -10.322806 85.677704 -3.128326 2.390077 -4.167610 -1.301853 0.044559 -0.026561 1.399642 0.092491 -0.051962 3.044713 0.091840 -0.053194 8.805320 -2.259699 2.136879 2.483310 2.170062 2.220069 -8.547224 -59.910492 -10.133682 -40.948760 -115.707093 -32.758141 -0.000001 -0.000001 -0.000007 5.514643 -12.579782 0.090235 0.000005 -0.000001 -3.005821 -5.000238 -7.998713 0.000185 -3.691152 54.949189 3.922082 -30.126250 116.401860 26.775998 0.000001 -0.000007 0.000005 6.134014 9.888067 0.039712 -0.000004 0.000001 3.000000 -5.000222 7.998811 -0.000158 3.248785 -174.911159 1.036327 -179.999991 0.000005 -1.220003 175.496588 -2.113464 -0.444419 -0.000003 -0.000003 0.040577 69.135079 6.952605 1.957637 25.456957 -7.355619 0.000001 2.721568 171.502457 -2.270513 -0.000005 -0.000005 -1.116620 -8.076531 1.357356 0.656494 -0.000004 0.000002 -0.122777 71.543219 -6.512632 -3.004642 25.458576 7.355616 -0.002454 
52.781597 -10.321012 85.679207 -3.132175 2.393044 -4.169297 -1.300991 0.044270 -0.026357 1.401482 0.092056 -0.051467 3.046553 0.091406 -0.052671 8.796944 -2.264859 2.138009 2.492400 2.178129 2.221024 -8.553492 -59.910082 -10.141015 -40.959565 -115.702230 -32.769906 0.000000 -0.000001 -0.000007 5.517084 -12.580729 0.089400 0.000003 -0.000001 -3.005820 -5.000239 -7.998712 0.000185 -3.698170 54.944367 3.930003 -30.125557 116.409400 26.760828 0.000000 -0.000007 0.000005 6.130635 9.872483 0.041567 -0.000003 0.000001 2.999999 -5.000221 7.998811 -0.000158 3.250779 -174.910162 1.041961 -179.999991 0.000004 -1.220003 175.494047 -2.121424 -0.444144 -0.000003 -0.000002 0.040578 69.133706 6.952607 1.957722 25.456955 -7.355613 -0.000001 2.723384 171.497471 -2.273976 -0.000005 -0.000004 -1.116620 -8.080723 1.357827 0.656501 -0.000004 0.000002 -0.122785 71.544326 -6.511836 -3.007647 25.458577 7.355616 -0.002454 
